<?xml version="1.0"?>
<svg width="135" height="45" xmlns="http://www.w3.org/2000/svg" xmlns:svg="http://www.w3.org/2000/svg">
 <!-- Created with SVG-edit - http://svg-edit.googlecode.com/ -->
 <g>
  <title>Layer 1</title>
  <ellipse fill="#ff00ff" stroke="#000000" stroke-width="0" stroke-dasharray="null" stroke-linejoin="null" stroke-linecap="null" cx="376" cy="242" id="svg_19"/>
  <ellipse fill="#ff00ff" stroke="#000000" stroke-width="0" stroke-dasharray="null" stroke-linejoin="null" stroke-linecap="null" cx="398" cy="233" id="svg_20"/>
  <path fill="none" stroke-width="0" stroke-dasharray="null" stroke-linejoin="null" stroke-linecap="null" id="svg_26" d="m105.10954,141c-0.35526,0.26735 -0.38814,0.78895 -0.3884,1.38216c-0.00024,0.53625 0,1.09493 0,1.64615c0,0.63293 0,1.07289 0,1.72351c0,0.48982 -0.07835,0.97409 0.01398,1.61157c0.08503,0.58709 0.35378,1.05848 0.6463,1.43995c0.29893,0.38982 0.78431,0.47805 1.217,0.68762c0.41626,0.20161 0.70875,0.77174 1.15226,0.85625c0.41636,0.07935 0.92235,-0.00437 1.38427,0.00063c0.44937,0.00487 0.88038,0.2014 1.25739,0.33466c0.45616,0.16122 1.00927,0.13273 1.38375,0.13273c0.51891,0 0.96661,0 1.42518,0c0.51787,0 0.91776,0.01173 1.37547,-0.1988c0.44008,-0.20241 0.83372,-0.3026 1.24858,-0.53718c0.42262,-0.23897 0.85455,-0.5879 1.13051,-0.91936c0.29346,-0.35247 0.64387,-0.79708 0.82879,-1.30715c0.18823,-0.51918 0.14222,-1.0817 0.14222,-1.70146c0,-0.55526 0.01244,-1.02657 0,-1.6361c-0.0111,-0.54439 -0.4273,-0.71083 -0.90161,-0.71083c-0.3985,0 -0.9472,-0.03263 -1.19162,0.40258c-0.29582,0.52673 -0.23719,1.15002 -0.23719,1.5991c0,0.63566 0,1.10679 0,1.59475c0,0.71729 -0.03226,1.16238 0.0035,1.82742c0.02155,0.40072 0.18795,0.99713 0.48486,1.48171c0.32168,0.52501 0.66115,0.83462 0.89533,1.04984c0.38792,0.35651 0.8463,0.75918 1.18709,1.06986c0.3658,0.33348 0.55289,0.51278 0.95904,0.84481c0.62593,0.5117 0.85044,0.66281 1.31279,0.95162c0.23675,0.14788 0.73849,0.42162 1.00571,0.54217c0.84959,0.38326 1.16407,0.47075 1.48143,0.57465c0.32428,0.10617 0.9943,0.3033 1.33689,0.39854c0.34566,0.09609 1.04345,0.28248 1.39294,0.37601c0.34912,0.09343 1.04466,0.28019 1.39022,0.37392c0.34373,0.09322 0.68519,0.18607 1.02364,0.28043c0.99644,0.27782 1.32162,0.37386 1.64574,0.46739c0.32374,0.09342 0.64793,0.18851 1.30425,0.37392c0.33368,0.09426 1.01876,0.28161 1.37243,0.37383c0.36099,0.09413 0.7299,0.18669 1.10694,0.27553c0.38423,0.09052 0.77545,0.18511 1.58469,0.33902c0.83763,0.1593 1.26964,0.21857 1.7069,0.28106c0.44158,0.0631 0.88659,0.1209 1.333,0.17947c0.4464,0.05858 0.89154,0.11521 1.333,0.17948c0.86853,0.12644 1.29174,0.20207 1.70794,0.28106c0.4106,0.07794 0.81536,0.16235 1.21531,0.25029c0.39654,0.08719 0.78962,0.17854 1.18035,0.27132c0.77811,0.18477 1.16613,0.28009 1.55414,0.37266c0.38711,0.09237 0.77304,0.18352 1.15763,0.27133c0.38237,0.0873 0.76235,0.17234 1.14016,0.25029c0.74456,0.15361 1.11191,0.21856 1.47438,0.2798c0.35659,0.06025 0.70715,0.11489 1.05101,0.16126c0.66267,0.08936 0.98066,0.12666 1.58598,0.17527c0.55947,0.04493 0.82314,0.05552 1.31896,0.06816c0.45683,0.01164 1.0762,0.00974 1.44959,0.00974c0.50861,0 0.81791,0 1.50855,0c0.35947,0 0.91081,0.00004 1.35475,0c0.42725,-0.00004 0.86247,-0.12302 1.20406,-0.51413c0.35813,-0.41006 0.621,-0.79715 0.77058,-1.30185c0.15524,-0.52377 0.28242,-1.06257 0.49276,-1.59599c0.19334,-0.49031 0.25142,-0.98152 0.25142,-1.54238c0,-0.56088 -0.04743,-1.13925 -0.31124,-1.49566c-0.32856,-0.4439 -0.61826,-0.85211 -1.00932,-1.21024c-0.35648,-0.32646 -0.99019,-0.61699 -1.33353,-0.20752c-0.32197,0.384 -0.06473,0.98901 -0.06473,1.62458c0,0.46622 0,0.93244 0,1.63563c0,0.63473 -0.01024,1.04062 0.01399,1.5209c0.03396,0.67333 0.12228,1.14859 0.2232,1.61967c0.14763,0.68913 0.26356,1.27743 0.34541,1.67147c0.11089,0.53386 0.3958,1.08898 0.66081,1.59654c0.20776,0.39791 0.41224,0.97307 0.72288,1.22729c0.46406,0.37976 0.86839,0.5586 1.2906,0.77564c0.2815,0.1447 0.82478,0.35237 1.32213,0.3926c0.46923,0.03796 0.93631,0.00998 1.28587,0.00998c0.58312,0 0.94026,0.00213 1.5795,0c0.28121,-0.00094 0.75457,-0.01154 1.11337,-0.08017c0.63913,-0.12224 1.12836,-0.31477 1.38776,-0.42064c0.53634,-0.2189 0.80505,-0.33866 1.30989,-0.62281c0.46761,-0.26319 0.86033,-0.54671 1.18541,-0.83943c0.29917,-0.26939 0.82789,-0.84382 1.10875,-1.12237c0.2898,-0.2874 0.59566,-0.57242 0.89955,-0.88056c0.47049,-0.4771 0.7767,-0.82127 1.07082,-1.17533c0.28636,-0.34472 0.78099,-1.01394 0.98338,-1.33082c0.28808,-0.45105 0.6506,-1.08453 0.85157,-1.4187c0.20607,-0.34262 0.52362,-0.83225 0.84452,-1.43707c0.1926,-0.363 0.36839,-0.84502 0.52266,-1.40779c0.13443,-0.49037 0.27365,-1.02111 0.52039,-1.49994c0.24714,-0.47958 0.60011,-0.8608 0.81293,-1.4588c0.14001,-0.39342 0.14157,-1.10632 0.14157,-1.6118c0,-0.50346 0,-1.10671 0,-1.67007c0,-0.47954 0.33728,-1.30966 -0.06473,-1.64148c-0.3803,-0.31391 -0.76024,0.3937 -1.03574,1.01268c-0.19494,0.43799 -0.25617,0.79674 -0.37494,1.3411c-0.16267,0.74558 -0.24455,1.12718 -0.32787,1.73481c-0.09054,0.66025 -0.10956,1.14912 -0.12474,1.67279c-0.00799,0.27569 -0.01311,0.85533 -0.01399,1.79479c-0.00031,0.33138 0,1.01097 0,1.35356c0,0.67679 -0.00089,1.00537 0,1.91818c0.00052,0.52722 -0.0013,1.00285 0.02796,1.44704c0.02889,0.43853 0.13065,1.13273 0.25474,1.62676c0.13181,0.52481 0.32169,1.05382 0.43922,1.31221c0.36213,0.79612 0.69986,1.27619 0.87364,1.51248c0.35048,0.47653 0.5372,0.70542 1.12326,1.34609c0.38487,0.42073 0.58652,0.62083 1.00338,1.02242c0.21619,0.20827 0.68038,0.63433 1.19757,1.08084c0.2781,0.2401 0.5713,0.485 0.87857,0.73053c0.31518,0.25186 0.63928,0.50328 0.97644,0.73895c0.678,0.47393 1.37921,0.8747 1.73137,1.04548c0.34812,0.16883 0.70125,0.31404 1.05686,0.44519c0.35626,0.1314 0.71841,0.24804 1.0848,0.36106c0.37105,0.11446 1.1339,0.33933 1.52572,0.45898c0.39793,0.12151 0.79937,0.24675 1.20307,0.37087c0.40353,0.12407 0.80496,0.24656 1.20308,0.36247c0.39166,0.11402 1.51363,0.40837 1.86789,0.48507c0.34554,0.07482 0.68565,0.14016 1.02248,0.1914c0.66771,0.10155 1.00458,0.13614 1.69118,0.18501c0.35338,0.02515 0.71564,0.03978 1.08713,0.05117c0.38152,0.01171 0.77397,0.01797 1.17803,0.02174c0.4165,0.00389 0.8462,0.00467 1.74834,0.00499c0.47319,0.00016 0.95806,0 1.45068,0c0.4965,0 0.99302,0 1.48564,0c0.48485,0 0.95806,0.00008 1.85398,0c0.41598,-0.00004 0.81098,0.00014 1.18735,-0.00211c0.36005,-0.00215 0.70615,-0.00609 1.04053,-0.01473c0.32513,-0.00839 0.64364,-0.01353 1.26775,-0.06106c0.62044,-0.04726 0.9275,-0.08765 1.23046,-0.13586c0.5932,-0.09439 0.8861,-0.13263 1.68256,-0.40944c0.2496,-0.08674 0.71423,-0.30063 1.12475,-0.56476c0.38678,-0.24884 0.88921,-0.67095 1.1777,-0.96205c0.40252,-0.40615 0.64533,-0.67946 1.02934,-1.26211c0.27411,-0.41589 0.45733,-0.71367 0.61698,-1.4176c0.13253,-0.58433 0.11766,-1.02278 0.14816,-1.45757c0.05996,-0.85456 0.11814,-1.25778 0.17551,-1.64864c0.08366,-0.57004 0.16643,-1.31747 0.18021,-1.68737c0.02007,-0.53879 0.01399,-1.21008 0.01399,-1.80834l0,-0.64266l-0.00414,-0.43l-0.08184,-0.57263" stroke="#ad2727"/>
  <path fill="none" stroke="#ad2727" stroke-width="0" stroke-dasharray="null" stroke-linejoin="null" stroke-linecap="null" id="svg_27" d="m284.75003,146.25c-0.625,0.875 -0.74219,1.54678 -0.75,2.5c-0.00601,0.73235 0,1.539 0,2.625c0,1.006 0,1.7395 0,2.76587c0,0.82013 0,1.62675 0,2.57701c0,0.94312 0,1.84811 0,2.65712c0,1 0,1.85938 0,2.77499c0,0.75 -0.11633,1.83062 0.12799,2.55001c0.27402,0.80682 1.03552,1.48204 1.5575,2.25c0.39892,0.58693 1.04455,1.50557 1.57501,2.05713c0.66669,0.69319 1.20556,1.23106 1.8175,1.81787c0.5683,0.54495 1.17701,1.1519 2.34363,1.55313c0.63248,0.21751 1.66016,0.42023 2.31275,0.8875c0.79559,0.56967 1.50808,1.16244 2.39062,1.35937c0.78082,0.17423 1.612,0.1245 2.698,0.125c0.927,0.00043 1.677,0 2.72699,0c0.75,0 1.64664,0 2.57501,0c1,0 1.76001,0.07767 2.664,-0.008c0.8786,-0.08325 1.61911,-0.377 2.711,-0.742c0.67279,-0.22492 1.36765,-0.39917 2.30875,-0.99087c0.69766,-0.43866 1.49148,-0.94721 2.26623,-1.42525c0.75955,-0.46866 1.37995,-1.09888 1.84802,-1.78388c0.52045,-0.76166 1.24405,-1.24957 1.805,-1.779c0.61398,-0.5795 1.23694,-1.06386 1.897,-2.021c0.45715,-0.66289 0.69586,-1.62997 0.97598,-2.201c0.43943,-0.89576 1.00141,-1.76276 1.42401,-2.3635c0.55411,-0.78766 0.90448,-1.67992 0.96701,-2.5585c0.06391,-0.89775 0.008,-1.752 0.008,-2.65201c0,-0.825 0.29999,-2.20119 -0.42187,-2.42811c-0.75232,-0.2365 -1.50837,0.69216 -2.00214,1.21911c-0.81278,0.86734 -1.04929,1.5791 -1.23499,2.70926c-0.11261,0.6853 -0.10147,1.43909 -0.25726,2.58174c-0.08856,0.64946 -0.29394,1.66226 -0.49875,2.317c-0.29104,0.9305 -0.73907,1.71117 -1.05261,2.48714c-0.40741,1.00832 -0.49969,1.84087 -0.52563,2.61362c-0.03788,1.12776 -0.00675,2.02525 -0.00675,2.72125c0,0.79199 0,1.869 0,2.78787c0,0.91612 -0.02481,1.83249 0.00024,2.67313c0.02701,0.90619 0.25718,1.83448 0.94275,2.277c0.80384,0.51886 1.70752,0.68389 2.35801,0.98c0.91497,0.41652 1.56497,0.879 2.31298,1.159c1.02182,0.3825 1.88822,0.39048 2.72303,0.48899c1.05642,0.12465 1.83145,0.33236 2.40609,0.42351c1.3895,0.22042 2.24656,0.22496 2.69889,0.23749c0.93585,0.02593 1.884,0.02651 2.80801,0.02701c0.871,0.00047 1.68799,0 2.457,0c1.418,0 2.07898,0 3.02738,0c0.61224,0 1.81573,0 2.72363,0c0.61899,0 1.91702,0.00583 2.60498,-0.002c0.70608,-0.00803 1.43268,0.0333 2.81201,-0.248c0.67166,-0.13698 1.3111,-0.39212 2.2645,-0.80675c0.99093,-0.43095 1.67297,-0.73991 2.36349,-1.04326c0.67545,-0.29672 1.89731,-0.86308 2.56839,-1.34999c0.5781,-0.41943 1.31738,-1.21187 1.94425,-1.8c0.48968,-0.45944 1.26568,-1.02532 2.03836,-1.64999c0.7146,-0.57775 1.22003,-1.2049 1.608,-1.92801c0.47488,-0.8851 0.85727,-1.65766 1.16101,-2.446c0.34082,-0.88466 0.43481,-1.84209 0.854,-2.73801c0.29099,-0.62196 1.03318,-1.43239 1.41675,-2.11299c0.41406,-0.7347 0.39844,-1.53117 0.40625,-2.625c0.00638,-0.89198 0,-1.73601 0,-2.65712c0,-0.79189 0,-1.69289 0,-2.74275c0,-0.72313 0.61551,-2.00774 -0.04288,-2.58226c-0.51437,-0.44887 -0.70712,0.88838 -0.70712,1.80913c0,0.762 0,1.73199 0,2.59199c0,0.89688 -0.02923,1.6908 0.00012,2.72414c0.02143,0.75463 0.19776,1.65097 0.39051,2.37249c0.33181,1.24207 0.50891,1.9172 1.05587,2.5705c0.69193,0.82643 1.34638,1.13548 1.97538,1.57013c0.67346,0.46538 1.70825,1.21249 2.36511,1.75474c0.64914,0.53588 1.25677,1.10173 1.92599,1.54801c0.96979,0.64668 1.71195,0.90631 2.47452,1.166c0.81632,0.27798 1.26602,0.38658 2.68561,0.948c0.52093,0.20602 1.59158,0.68469 2.14252,0.927c0.55407,0.24368 1.65158,0.73184 2.73437,1.125c0.51422,0.18671 1.5119,0.48413 2.46875,0.71875c0.46414,0.11381 1.38324,0.30131 2.73123,0.64712c0.45142,0.1158 1.34705,0.38141 2.25,0.61313c0.89722,0.23024 1.79718,0.41899 2.69702,0.51799c0.87684,0.09647 1.7219,0.11824 2.51099,0.12601c1.04382,0.01027 1.927,0.00204 2.74262,0.002c1.15664,-0.00006 1.81057,0.0113 2.86538,-0.02701c0.73645,-0.02675 1.86206,-0.11873 2.60227,-0.24762c0.72931,-0.127 1.47235,-0.23373 2.67474,-0.883c0.58218,-0.31436 1.10348,-0.77432 1.883,-1.58638c0.59069,-0.61538 1.20098,-1.34414 1.862,-2.11299c0.33752,-0.39257 1.00604,-1.17621 1.336,-1.554c0.9136,-1.04602 1.4793,-1.64583 2.001,-2.24525c0.53656,-0.61649 1.37976,-1.7154 1.68189,-2.14888c0.65414,-0.93859 0.97629,-1.44585 1.30249,-1.9605c0.65011,-1.02574 0.95868,-1.52862 1.51562,-2.48437c0.49115,-0.84288 0.9104,-1.61176 1.27799,-2.349c0.36639,-0.73486 0.91568,-1.94772 1.108,-2.39c0.39807,-0.91539 0.60757,-1.37689 0.93875,-2.31751c0.46008,-1.30676 0.63602,-2.09564 0.71927,-2.79649c0.1066,-0.8976 0.08099,-2.07001 0.08099,-2.808c0,-0.90513 0,-1.72963 0,-2.839c0,-0.66826 0.01798,-1.48941 0,-2.59375c-0.01352,-0.82959 -0.82501,-1.15625 -1.64999,-1.15625c-0.90802,0 -1.94553,-0.23546 -2.72501,0.25c-0.62011,0.3862 -0.86984,1.377 -1.18301,2.177c-0.25565,0.65303 -0.80994,1.76867 -1.17636,2.43237c-0.34424,0.62355 -0.7207,1.55168 -0.76364,2.46762c-0.04215,0.89902 -0.00199,1.68863 -0.00199,2.511c0,1.049 0,1.78701 0,3.03701c0,0.81787 -0.00073,1.39062 0,2.276c0.00101,1.2 -0.02655,1.81114 0.08576,2.74187c0.11929,0.9886 0.29248,1.68949 0.72674,2.7165c0.29551,0.69886 0.91507,1.66007 1.41349,2.21262c0.49072,0.544 1.06695,0.97973 2.02401,1.92801c0.4397,0.43565 0.98352,1.15617 1.63999,1.8c0.72491,0.71097 1.35754,1.14267 2.06314,1.55937c0.75467,0.44567 1.16165,0.66574 2.50424,1.1995c0.94614,0.37614 1.45193,0.5229 2.48563,0.83313c0.53027,0.15914 1.07153,0.31246 2.74801,0.75799c0.57151,0.15187 1.728,0.45 2.30899,0.60001c0.581,0.14999 1.73761,0.44772 2.875,0.75c0.5593,0.14863 1.65937,0.44768 2.206,0.584c1.08584,0.2708 1.63107,0.39358 2.182,0.48799c1.67139,0.28639 2.24817,0.31418 3.39798,0.37401c0.57306,0.02981 1.14295,0.04396 2.26203,0.052c1.07696,0.00773 2.09698,0.002 3.05697,0.002c0.45752,0 1.32752,0.00566 2.52002,0c1.06766,-0.00507 1.7479,0.02549 2.71201,-0.192c1.02417,-0.23104 1.71948,-0.59429 2.42862,-1.01113c0.75305,-0.44267 1.13568,-0.69638 2.23425,-1.60412c0.76496,-0.63208 1.12509,-0.98867 1.84812,-1.70876c0.36319,-0.36171 1.40475,-1.48155 1.73587,-1.85899c0.65374,-0.74523 1.27676,-1.499 1.58313,-1.875c0.60946,-0.74799 1.50878,-1.87384 1.80499,-2.248c0.58127,-0.73423 1.14026,-1.43517 1.61102,-2.12401c0.61817,-0.90454 1.01309,-1.72672 1.34973,-2.44624c0.42597,-0.91051 0.83081,-1.59125 1.24564,-2.3425c0.45953,-0.83225 0.89966,-1.79053 1.181,-2.46425c0.27911,-0.66838 0.63067,-1.62877 0.9545,-2.46762c0.298,-0.77198 0.80154,-1.7883 1.13711,-2.32039c0.53397,-0.84668 0.97501,-1.36623 1.56662,-2.47075c0.38187,-0.71289 0.66541,-1.38109 0.81452,-2.51999c0.09509,-0.72626 0.04287,-1.48425 0.04287,-0.60675c0,0.8855 0.19797,1.85649 0.91599,2.1835c0.84021,0.38268 1.67688,0.3253 2.6,0.327c0.896,0.00163 1.98401,0 2.61099,0c1.01365,0 1.71189,0 2.74802,0l0.99564,0l0.67624,0l0.72125,0"/>
  <path fill="none" stroke="#ad2727" stroke-width="0" stroke-dasharray="null" stroke-linejoin="null" stroke-linecap="null" id="svg_28" d="m329.00003,147.75c0.431,-0.916 0.71509,-1.79822 0.74661,-2.55c0.04435,-1.05707 0.04651,-2.07753 -0.01013,-2.67463c-0.08996,-0.94844 -0.46484,-1.78811 -0.84048,-2.40138c-0.41461,-0.67689 -0.92389,-1.33609 -1.422,-1.998c-0.69156,-0.91899 -1.2861,-1.71968 -1.76724,-2.48712c-0.47275,-0.75407 -0.89853,-1.58731 -1.23801,-2.13887c-0.52402,-0.85143 -1.19189,-1.64294 -1.69775,-2.1355c-0.51218,-0.4987 -1.33264,-1.19551 -1.98902,-2.00551c-0.42849,-0.52879 -0.94821,-1.40586 -1.358,-1.946c-0.62378,-0.82218 -1.40689,-1.53401 -1.93597,-1.97799c-0.97867,-0.82124 -1.35996,-1.2335 -2.12201,-1.77301c-0.86579,-0.61296 -1.68381,-0.63741 -2.56937,-0.92987c-0.6557,-0.21655 -1.57779,-0.59081 -2.37762,-0.95913c-1.00339,-0.46205 -1.40677,-1.03002 -2.41901,-1.52299c-0.70645,-0.34405 -1.72262,-0.28212 -2.34601,-0.708c-0.82159,-0.5613 -1.41961,-1.02638 -2.33612,-1.042l-0.94287,0l-0.85715,-0.04288l-0.53573,-0.66425"/>
  <g id="svg_5">
   <ellipse fill="#a01414" stroke="#000000" stroke-width="0" stroke-dasharray="null" stroke-linejoin="null" stroke-linecap="null" cx="79.954546" cy="21.979798" rx="19" ry="20" id="svg_25"/>
   <ellipse fill="#00007f" stroke="#000000" stroke-width="0" stroke-dasharray="null" stroke-linejoin="null" stroke-linecap="null" cx="112.454546" cy="21.979798" rx="19" ry="20" id="svg_16"/>
   <ellipse fill="#00007f" stroke="#000000" stroke-width="0" stroke-dasharray="null" stroke-linejoin="null" stroke-linecap="null" cx="49.454546" cy="21.979798" rx="19" ry="20" id="svg_18"/>
   <ellipse fill="#a01414" stroke="#000000" stroke-width="0" stroke-dasharray="null" stroke-linejoin="null" stroke-linecap="null" cx="20.454546" cy="21.979798" id="svg_15" rx="19" ry="20"/>
   <text fill="#00007f" stroke="#000000" stroke-width="0" stroke-dasharray="null" stroke-linejoin="null" stroke-linecap="null" x="20.454546" y="22.979798" id="svg_11" font-size="24" font-family="serif" text-anchor="middle" xml:space="preserve">J</text>
   <text fill="#bfbfbf" stroke="#000000" stroke-width="0" stroke-dasharray="null" stroke-linejoin="null" stroke-linecap="null" x="51.454546" y="22.979798" id="svg_12" font-size="24" font-family="serif" text-anchor="middle" xml:space="preserve">A</text>
   <text fill="#00007f" stroke="#000000" stroke-width="0" stroke-dasharray="null" stroke-linejoin="null" stroke-linecap="null" x="82.454546" y="22.979798" id="svg_13" font-size="24" font-family="serif" text-anchor="middle" xml:space="preserve">F</text>
   <text fill="#bfbfbf" stroke="#000000" stroke-width="0" stroke-dasharray="null" stroke-linejoin="null" stroke-linecap="null" x="112.454546" y="22.979798" id="svg_14" font-size="24" font-family="serif" text-anchor="middle" xml:space="preserve">L</text>
   <text fill="#ffffff" stroke-width="0" stroke-dasharray="null" stroke-linejoin="null" stroke-linecap="null" x="80.066307" y="51.245457" id="svg_24" font-size="24" font-family="serif" text-anchor="middle" xml:space="preserve" transform="matrix(0.555845112032913,0,0,0.6183125088371156,22.792483742630594,3.863107627460521) " stroke="#000000">FRONTSOFT.NEXT</text>
  </g>
 </g>
</svg>